{"title":"Deadpool.2.2018.Hindi.720p.HDCAM.X264.LLG","magnet":"magnet:?xt=urn:btih:7d7f6370d99a263b1bd899fc65520f714f986a24&dn=Deadpool.2.2018.Hindi.720p.HDCAM.X264.LLG&tr=udp%3A%2F%2Ftracker.leechers-paradise.org%3A6969&tr=udp%3A%2F%2Fzer0day.ch%3A1337&tr=udp%3A%2F%2Fopen.demonii.com%3A1337&tr=udp%3A%2F%2Ftracker.coppersurfer.tk%3A6969&tr=udp%3A%2F%2Fexodus.desync.com%3A6969","uploader":"LifeLongg","categoryP":"video","categoryS":"movies","size":"1073998525","seeders":"0","leechers":"1","description":"******************************Screenshots:********************\r\n <a href=\"\nhttp://picserver4u.com/1441.html\" rel=\"nofollow\" target=\"_NEW\">\nhttp://picserver4u.com/1441.html</a>\r\n <a href=\"\nhttp://picserver4u.com/1442.html\" rel=\"nofollow\" target=\"_NEW\">\nhttp://picserver4u.com/1442.html</a>\r\n <a href=\"\nhttp://picserver4u.com/1443.html\" rel=\"nofollow\" target=\"_NEW\">\nhttp://picserver4u.com/1443.html</a>\r\n <a href=\"\nhttp://picserver4u.com/1444.html\" rel=\"nofollow\" target=\"_NEW\">\nhttp://picserver4u.com/1444.html</a>\r\n <a href=\"\nhttp://picserver4u.com/1445.html\" rel=\"nofollow\" target=\"_NEW\">\nhttp://picserver4u.com/1445.html</a>\r\n\r\n************************************************************** \r\n\r\nComplete name                            : Deadpool.2.2018.Hindi.720p.HDCAM.X264.LLG.mp4\r\nFormat                                   : MPEG-4\r\nFormat profile                           : Base Media\r\nCodec ID                                 : isom (isom/iso2/avc1/mp41)\r\nFile size                                : 988 MiB\r\nDuration                                 : 1 h 48 min\r\nOverall bit rate                         : 1 268 kb/s\r\nWriting application                      : Lavf57.56.101\r\n\r\nVideo\r\nID                                       : 1\r\nFormat                                   : AVC\r\nFormat/Info                              : Advanced Video Codec\r\nFormat profile                           : High@L3.1\r\nFormat settings                          : CABAC / 4 Ref Frames\r\nFormat settings, CABAC                   : Yes\r\nFormat settings, RefFrames               : 4 frames\r\nCodec ID                                 : avc1\r\nCodec ID/Info                            : Advanced Video Coding\r\nDuration                                 : 1 h 48 min\r\nBit rate                                 : 1 200 kb/s\r\nWidth                                    : 1 280 pixels\r\nHeight                                   : 546 pixels\r\nDisplay aspect ratio                     : 2.35:1\r\nFrame rate mode                          : Constant\r\nFrame rate                               : 29.970 (29970/1000) FPS\r\nColor space                              : YUV\r\nChroma subsampling                       : 4:2:0\r\nBit depth                                : 8 bits\r\nScan type                                : Progressive\r\nBits/(Pixel*Frame)                       : 0.057\r\nStream size                              : 930 MiB (94%)\r\n\r\nAudio\r\nID                                       : 2\r\nFormat                                   : AAC\r\nFormat/Info                              : Advanced Audio Codec\r\nFormat profile                           : LC\r\nCodec ID                                 : mp4a-40-2\r\nDuration                                 : 1 h 48 min\r\nBit rate mode                            : Constant\r\nBit rate                                 : 64.4 kb/s\r\nChannel(s)                               : 2 channels\r\nChannel positions                        : Front: L R\r\nSampling rate                            : 48.0 kHz\r\nFrame rate                               : 46.875 FPS (1024 SPF)\r\nCompression mode                         : Lossy\r\nStream size                              : 50.2 MiB (5%)\r\nLanguage                                 : Hindi\r\nDefault                                  : Yes\r\nAlternate group                          : 1","last_updated":"2018-05-19T12:05:39.300Z","parsed":{"xt":"urn:btih:7d7f6370d99a263b1bd899fc65520f714f986a24","dn":"Deadpool.2.2018.Hindi.720p.HDCAM.X264.LLG","tr":["udp://exodus.desync.com:6969","udp://open.demonii.com:1337","udp://tracker.coppersurfer.tk:6969","udp://tracker.leechers-paradise.org:6969","udp://zer0day.ch:1337"],"infoHash":"7d7f6370d99a263b1bd899fc65520f714f986a24","infoHashBuffer":{"type":"Buffer","data":[125,127,99,112,217,154,38,59,27,216,153,252,101,82,15,113,79,152,106,36]},"name":"Deadpool.2.2018.Hindi.720p.HDCAM.X264.LLG","announce":["udp://exodus.desync.com:6969","udp://open.demonii.com:1337","udp://tracker.coppersurfer.tk:6969","udp://tracker.leechers-paradise.org:6969","udp://zer0day.ch:1337"],"urlList":[]}}